<svg width="92" height="10" viewBox="0 0 92 10" fill="none" xmlns="http://www.w3.org/2000/svg">
<path fill-rule="evenodd" clip-rule="evenodd" d="M10.748 9.69285V2.16981L7.50272 9.69285H5.39923L2.16496 2.15665V9.69285H0V0.307151H3.58997L6.45537 7.2115L9.32076 0.307151H12.8998V9.69285H10.748ZM14.742 9.69285V0.307151H16.9069V9.69285H14.742ZM27.1367 3.39184C27.1367 3.16806 27.0994 2.98815 27.0269 2.84774C26.9523 2.70952 26.8622 2.60202 26.7568 2.52523C26.6493 2.44844 26.5417 2.39798 26.4319 2.37165C26.3221 2.34533 26.2321 2.33216 26.1684 2.33216H18.7535V0.307151H26.489C26.7195 0.307151 26.994 0.35103 27.3189 0.440982C27.6417 0.530934 27.9513 0.688897 28.2477 0.917068C28.5419 1.14524 28.7923 1.45897 28.9987 1.85608C29.2029 2.25318 29.3061 2.76656 29.3061 3.39184C29.3061 3.80211 29.2577 4.16411 29.1589 4.47784C29.0601 4.79157 28.9306 5.06143 28.7725 5.2896C28.6122 5.51777 28.4322 5.70645 28.2324 5.86003C28.0303 6.01141 27.8283 6.13208 27.6241 6.22203L29.1238 9.69504H26.8117L25.435 6.48969H20.9229V9.69504H18.7579V4.46687H26.1728C26.2211 4.46687 26.3001 4.45151 26.4055 4.4208C26.5131 4.39008 26.6207 4.33304 26.7305 4.25406C26.8403 4.17288 26.9369 4.06319 27.0203 3.92497C27.1016 3.78675 27.1433 3.60904 27.1433 3.39623L27.1367 3.39184ZM39.7291 5C39.7291 4.59851 39.6566 4.21457 39.5139 3.85257C39.3712 3.49057 39.1538 3.17025 38.8618 2.89381C38.5697 2.61737 38.2052 2.39798 37.7683 2.23782C37.3291 2.07767 36.8197 1.99649 36.2379 1.99649C35.656 1.99649 35.1466 2.07767 34.7075 2.23782C34.2683 2.39798 33.9039 2.61737 33.614 2.89381C33.3242 3.17025 33.1068 3.49057 32.9619 3.85257C32.8192 4.21457 32.7467 4.59631 32.7467 5C32.7467 5.40369 32.8192 5.78543 32.9619 6.14743C33.1046 6.50943 33.322 6.82975 33.614 7.10619C33.906 7.38263 34.2705 7.60202 34.7075 7.76218C35.1466 7.92233 35.656 8.00351 36.2379 8.00351C36.8197 8.00351 37.3291 7.92233 37.7683 7.76218C38.2074 7.60202 38.5719 7.38263 38.8618 7.10619C39.1538 6.82975 39.369 6.50943 39.5139 6.14743C39.6566 5.78543 39.7291 5.40369 39.7291 5ZM42.0038 5C42.0038 5.68012 41.8721 6.32076 41.6108 6.92409C41.3495 7.52743 40.9696 8.05616 40.4734 8.51251C39.9772 8.96885 39.3734 9.33085 38.6597 9.59851C37.9461 9.86617 37.1381 10 36.2379 10C35.3376 10 34.5296 9.86617 33.816 9.59851C33.1024 9.33085 32.4986 8.96885 32.0024 8.51251C31.5061 8.05616 31.1263 7.52743 30.865 6.92409C30.6037 6.32076 30.472 5.68012 30.472 5C30.472 4.31988 30.6037 3.67924 30.865 3.07591C31.1285 2.47257 31.5061 1.94384 32.0024 1.48749C32.4986 1.03115 33.1024 0.66915 33.816 0.401489C34.5296 0.133828 35.3376 0 36.2379 0C37.1381 0 37.9461 0.133828 38.6597 0.401489C39.3734 0.66915 39.9772 1.03115 40.4734 1.48749C40.9696 1.94384 41.3495 2.47257 41.6108 3.07591C41.8721 3.67924 42.0038 4.31988 42.0038 5Z" fill="white"/>
<path fill-rule="evenodd" clip-rule="evenodd" d="M52.359 6.81C52.359 6.595 52.3217 6.42606 52.2492 6.30101C52.1745 6.17595 52.0867 6.08161 51.9857 6.02018C51.8825 5.95875 51.7793 5.91707 51.6717 5.89952C51.5641 5.88197 51.4785 5.87319 51.4126 5.87319H45.7323V7.73804H51.4126C51.4609 7.73804 51.5378 7.72927 51.641 7.71172C51.7442 7.69416 51.8474 7.65467 51.955 7.59105C52.0626 7.52742 52.1548 7.43528 52.2382 7.31022C52.3195 7.18517 52.3612 7.02062 52.3612 6.81439L52.359 6.81ZM52.359 3.19C52.359 2.97499 52.3217 2.80605 52.2492 2.681C52.1745 2.55594 52.0867 2.4638 51.9857 2.40675C51.8825 2.34971 51.7793 2.31022 51.6717 2.29267C51.5641 2.27512 51.4785 2.26634 51.4126 2.26634H45.7323V4.1312H51.4126C51.4609 4.1312 51.5378 4.12242 51.641 4.10487C51.7442 4.08732 51.8474 4.04344 51.955 3.97762C52.0626 3.90961 52.1548 3.81527 52.2382 3.69021C52.3195 3.56516 52.3612 3.40061 52.3612 3.19438L52.359 3.19ZM54.4383 7.09302C54.4383 7.55814 54.3637 7.95305 54.2165 8.27995C54.0694 8.60685 53.8696 8.87451 53.6193 9.08513C53.369 9.29574 53.0748 9.44932 52.7344 9.54805C52.3941 9.64678 52.0274 9.69504 51.6344 9.69504H43.5674V0.309344H51.6344C52.045 0.309344 52.4205 0.359807 52.7652 0.462923C53.1099 0.566038 53.4041 0.724002 53.6501 0.939008C53.896 1.15401 54.0892 1.42826 54.2275 1.76393C54.3659 2.0996 54.4361 2.50329 54.4361 2.97718C54.4273 3.26239 54.379 3.53664 54.289 3.79552C54.2144 4.01931 54.0958 4.24309 53.9333 4.46687C53.7686 4.69066 53.5315 4.87275 53.2197 5.01755C53.5315 5.17771 53.7686 5.37736 53.9333 5.61431C54.098 5.85125 54.2165 6.08161 54.289 6.3054C54.379 6.56428 54.4273 6.82756 54.4361 7.09741L54.4383 7.09302ZM64.802 5C64.802 4.59851 64.7296 4.21457 64.5869 3.85257C64.4441 3.49057 64.2268 3.17025 63.9347 2.89381C63.6427 2.61737 63.2782 2.39798 62.8413 2.23782C62.4021 2.07767 61.8927 1.99649 61.3109 1.99649C60.729 1.99649 60.2196 2.07767 59.7805 2.23782C59.3413 2.39798 58.9768 2.61737 58.687 2.89381C58.395 3.17025 58.1798 3.49057 58.0349 3.85257C57.8922 4.21457 57.8197 4.59631 57.8197 5C57.8197 5.40369 57.8922 5.78543 58.0349 6.14743C58.1776 6.50943 58.395 6.82975 58.687 7.10619C58.979 7.38263 59.3435 7.60202 59.7805 7.76218C60.2196 7.92233 60.729 8.00351 61.3109 8.00351C61.8927 8.00351 62.4021 7.92233 62.8413 7.76218C63.2804 7.60202 63.6449 7.38263 63.9347 7.10619C64.2268 6.82975 64.4419 6.50943 64.5869 6.14743C64.7296 5.78543 64.802 5.40369 64.802 5ZM67.0768 5C67.0768 5.68012 66.945 6.32076 66.6838 6.92409C66.4225 7.52743 66.0426 8.05616 65.5464 8.51251C65.0501 8.96885 64.4463 9.33085 63.7327 9.59851C63.0191 9.86617 62.2111 10 61.3109 10C60.4106 10 59.6026 9.86617 58.889 9.59851C58.1754 9.33085 57.5716 8.96885 57.0754 8.51251C56.5791 8.05616 56.1993 7.52743 55.938 6.92409C55.6767 6.32076 55.5449 5.68012 55.5449 5C55.5449 4.31988 55.6767 3.67924 55.938 3.07591C56.2015 2.47257 56.5791 1.94384 57.0754 1.48749C57.5716 1.03115 58.1754 0.66915 58.889 0.401489C59.6026 0.133828 60.4106 0 61.3109 0C62.2111 0 63.0191 0.133828 63.7327 0.401489C64.4463 0.66915 65.0501 1.03115 65.5464 1.48749C66.0426 1.94384 66.4225 2.47257 66.6838 3.07591C66.9472 3.67924 67.0768 4.31988 67.0768 5ZM77.603 5C77.603 4.62484 77.5393 4.26942 77.412 3.93374C77.2846 3.59807 77.0892 3.30847 76.8213 3.06275C76.5556 2.81702 76.2219 2.62176 75.8201 2.47916C75.4183 2.33655 74.944 2.26415 74.3929 2.26415H70.6536V7.73585H74.3929C74.9418 7.73585 75.4183 7.66345 75.8201 7.52084C76.2219 7.37824 76.5556 7.18298 76.8213 6.93725C77.087 6.69153 77.2846 6.40193 77.412 6.06626C77.5393 5.73058 77.603 5.37516 77.603 5ZM79.8777 5C79.8777 5.64283 79.757 6.25055 79.5154 6.82317C79.2739 7.39579 78.9204 7.89381 78.4571 8.31944C77.9938 8.74507 77.4273 9.07855 76.7532 9.32427C76.0814 9.56999 75.3107 9.69285 74.4412 9.69285H68.4908V0.307151H74.4412C75.3107 0.307151 76.0814 0.43001 76.7532 0.675732C77.4251 0.921454 77.9938 1.25713 78.4571 1.68056C78.9204 2.10619 79.2717 2.60421 79.5154 3.17683C79.757 3.74945 79.8777 4.35717 79.8777 5ZM87.2311 6.52918V9.69285H85.0794V6.63668L80.3081 0.307151H82.8902L86.1355 4.54366L89.3324 0.307151H92.0002L87.2289 6.52918H87.2311Z" fill="#2D8FF7"/>
</svg>
